<svg viewBox="0 0 20 18" fill="none" xmlns="http://www.w3.org/2000/svg"><path d="M1 1h3.273l2.192 10.202c.075.35.28.666.58.89.299.224.673.343 1.057.337h7.953c.384.006.758-.113 1.057-.337.3-.224.504-.54.579-.89L19 4.81H5.09m3.274 11.428c0 .42-.367.762-.819.762-.451 0-.818-.341-.818-.762 0-.42.367-.762.818-.762.452 0 .819.341.819.762zm9 0c0 .42-.367.762-.819.762-.451 0-.818-.341-.818-.762 0-.42.367-.762.819-.762.451 0 .818.341.818.762z" stroke-width="2" stroke-linecap="round" stroke-linejoin="round"/></svg>
