<svg xmlns="http://www.w3.org/2000/svg" xmlns:xlink="http://www.w3.org/1999/xlink"><symbol id="arrow-down" viewBox="0 0 18 11"><g fill="none"><path d="M1 1l8 8 8-8" stroke="#151C22" stroke-width="2"/></g></symbol><symbol id="arrow-to-left" viewBox="0 0 11 18"><g fill="none"><path d="M10 1L2 9l8 8" stroke="#151C22" stroke-width="2"/></g></symbol><symbol id="arrow-to-right" viewBox="0 0 11 18"><g fill="none"><path d="M1 17l8-8-8-8" stroke="#151C22" stroke-width="2"/></g></symbol><symbol id="arrow-to-skip" viewBox="0 0 12 29"><g fill="none"><path d="M6 0v27m0 0l5-6m-5 6l-5-6" stroke="#151C22" stroke-width="2"/></g></symbol><symbol id="arrow-up" viewBox="0 0 18 11"><g fill="none"><path d="M17 10L9 2l-8 8" stroke="#151C22" stroke-width="2"/></g></symbol><symbol id="icon-cart" viewBox="0 0 20 18"><g fill="none"><path d="M1 1h3.273l2.192 10.202c.075.35.28.666.58.89.299.224.673.343 1.057.337h7.953c.384.006.758-.113 1.057-.337.3-.224.504-.54.579-.89L19 4.81H5.09m3.274 11.428c0 .42-.367.762-.819.762-.451 0-.818-.341-.818-.762 0-.42.367-.762.818-.762.452 0 .819.341.819.762zm9 0c0 .42-.367.762-.819.762-.451 0-.818-.341-.818-.762 0-.42.367-.762.819-.762.451 0 .818.341.818.762z" stroke-width="2" stroke-linecap="round" stroke-linejoin="round"/></g></symbol><symbol id="icon-facebook" viewBox="0 0 11 20"><path d="M7 11.5h2.5l1-4H7v-2c0-1.03 0-2 2-2h1.5V.14C10.174.097 8.943 0 7.643 0 4.928 0 3 1.657 3 4.7v2.8H0v4h3V20h4v-8.5z"/></symbol><symbol id="icon-instagram" viewBox="0 0 20 20"><path d="M10 0c2.717 0 3.056.01 4.122.06 1.065.05 1.79.217 2.428.465.66.254 1.216.598 1.772 1.153.509.5.902 1.105 1.153 1.772.247.637.415 1.363.465 2.428.047 1.066.06 1.405.06 4.122 0 2.717-.01 3.056-.06 4.122-.05 1.065-.218 1.79-.465 2.428a4.883 4.883 0 01-1.153 1.772c-.5.508-1.105.902-1.772 1.153-.637.247-1.363.415-2.428.465-1.066.047-1.405.06-4.122.06-2.717 0-3.056-.01-4.122-.06-1.065-.05-1.79-.218-2.428-.465a4.89 4.89 0 01-1.772-1.153A4.904 4.904 0 01.525 16.55C.277 15.913.11 15.187.06 14.122.013 13.056 0 12.717 0 10c0-2.717.01-3.056.06-4.122.05-1.066.217-1.79.465-2.428a4.88 4.88 0 011.153-1.772A4.897 4.897 0 013.45.525C4.088.277 4.812.11 5.878.06 6.944.013 7.283 0 10 0zm0 5a5 5 0 100 10 5 5 0 000-10zm6.5-.25a1.25 1.25 0 10-2.5 0 1.25 1.25 0 002.5 0zM10 7a3 3 0 110 6 3 3 0 010-6z"/></symbol><symbol id="icon-pinterest" viewBox="0 0 21 20"><path d="M11.37.094A10.003 10.003 0 006.002 19.17a7.757 7.757 0 01.163-2.293c.185-.839 1.296-5.463 1.296-5.463a3.739 3.739 0 01-.324-1.577c0-1.485.857-2.593 1.923-2.593a1.334 1.334 0 011.342 1.508c0 .9-.578 2.262-.88 3.54a1.544 1.544 0 001.575 1.923c1.898 0 3.17-2.431 3.17-5.301 0-2.2-1.457-3.848-4.143-3.848a4.746 4.746 0 00-4.93 4.794 2.96 2.96 0 00.648 1.97.48.48 0 01.162.554c-.046.184-.162.623-.208.784a.354.354 0 01-.51.254c-1.384-.554-2.036-2.077-2.036-3.816 0-2.847 2.384-6.255 7.154-6.255 3.796 0 6.32 2.777 6.32 5.747 0 3.909-2.177 6.848-5.394 6.848A2.862 2.862 0 018.876 14.7s-.578 2.316-.692 2.754a8.026 8.026 0 01-1.019 2.131c.923.28 1.882.42 2.846.416a9.99 9.99 0 009.996-10.003A10.002 10.002 0 0011.372.095L11.37.094z"/></symbol><symbol id="icon-search" viewBox="0 0 18 18"><g fill="none"><path d="M17 17l-3.867-3.867m2.09-5.022A7.111 7.111 0 111 8.111a7.111 7.111 0 0114.222 0z" stroke-width="2" stroke-linecap="round" stroke-linejoin="round"/></g></symbol><symbol id="icon-twitter" viewBox="0 0 22 18"><path d="M21.162 2.656a8.383 8.383 0 01-2.402.658A4.196 4.196 0 0020.6 1c-.82.488-1.719.83-2.656 1.015a4.182 4.182 0 00-7.126 3.814 11.874 11.874 0 01-8.62-4.37 4.168 4.168 0 00-.566 2.103c0 1.45.738 2.731 1.86 3.481a4.168 4.168 0 01-1.894-.523v.052a4.185 4.185 0 003.355 4.101 4.209 4.209 0 01-1.89.072A4.185 4.185 0 006.97 13.65a8.393 8.393 0 01-6.19 1.732 11.829 11.829 0 006.41 1.88c7.692 0 11.9-6.373 11.9-11.9 0-.18-.006-.362-.014-.54a8.495 8.495 0 002.087-2.165v-.001z"/></symbol></svg>